<?xml version="1.0" encoding="UTF-8"?>
<svg version="1.1" xmlns="http://www.w3.org/2000/svg" width="1353" height="371">
<path d="M0 0 C4.94791294 -0.0246826 9.8957902 -0.04285166 14.84375 -0.05493164 C16.52767562 -0.05996653 18.21159686 -0.06679481 19.89550781 -0.07543945 C22.31316203 -0.08754196 24.73075856 -0.09323668 27.1484375 -0.09765625 C27.9036972 -0.10281754 28.65895691 -0.10797882 29.43710327 -0.11329651 C34.77225659 -0.11387171 34.77225659 -0.11387171 37 1 C37.42791748 3.15292358 37.42791748 3.15292358 37.68261719 6.05224609 C37.78344101 7.14512436 37.88426483 8.23800262 37.98814392 9.36399841 C38.09002518 10.57161331 38.19190643 11.77922821 38.296875 13.0234375 C38.47204195 14.95767523 38.64721473 16.89191243 38.82261562 18.82612896 C39.00949264 20.90576056 39.19183581 22.98574691 39.37295532 25.06588745 C39.74918611 29.38217898 40.1387507 33.69719046 40.53198242 38.01196289 C40.59796096 38.73592286 40.6639395 39.45988283 40.73191738 40.20578098 C40.86655056 41.68219885 41.00125395 43.15861032 41.13602638 44.63501549 C41.34143119 46.88850957 41.54574993 49.14210025 41.74992371 51.39570618 C43.05599078 65.77999191 44.46179428 80.15357584 45.91687012 94.52349854 C46.18080077 97.13458782 46.44276116 99.745877 46.70275879 102.35736084 C47.06429516 105.98740652 47.43159638 109.61681903 47.80078125 113.24609375 C47.90781876 114.32842789 48.01485626 115.41076202 48.12513733 116.52589417 C48.22604172 117.50275681 48.32694611 118.47961945 48.4309082 119.48608398 C48.51717972 120.33895493 48.60345123 121.19182587 48.69233704 122.07054138 C48.80685362 124.00250019 48.80685362 124.00250019 50 125 C51.54981083 110.7521849 53.09724636 96.50411349 54.64200497 82.2557497 C55.3594689 75.63872594 56.07767344 69.02178492 56.79760742 62.4050293 C57.493162 56.01208046 58.18672304 49.61891812 58.87893867 43.22560692 C59.14255263 40.79407329 59.40686855 38.36261565 59.67191887 35.93123817 C60.04481087 32.50945513 60.41546644 29.08743993 60.78491211 25.6652832 C60.95574767 24.09208045 60.95574767 24.09208045 61.13003445 22.48709583 C61.82185405 16.00978823 62.37768478 9.55158439 62.68165588 3.0431366 C62.83923622 2.03178398 62.83923622 2.03178398 63 1 C65.76617563 -0.38308781 68.01018 -0.11210196 71.1015625 -0.09765625 C72.31328125 -0.09443359 73.525 -0.09121094 74.7734375 -0.08789062 C76.04445313 -0.07951172 77.31546875 -0.07113281 78.625 -0.0625 C79.90375 -0.05798828 81.1825 -0.05347656 82.5 -0.04882812 C85.66671292 -0.03701203 88.83333356 -0.02053815 92 0 C94.03684016 4.3171636 94.56882946 8.55759391 95.02148438 13.25244141 C95.10634598 14.07121262 95.19120758 14.88998383 95.27864075 15.73356628 C95.55729593 18.43890497 95.82553793 21.14517019 96.09375 23.8515625 C96.28723294 25.74952718 96.48137637 27.64742464 96.67614746 29.54525757 C97.18817304 34.55144345 97.69143503 39.55847259 98.19281006 44.56573486 C98.69769485 49.59381764 99.21038649 54.62110268 99.72265625 59.6484375 C100.30176387 65.33573933 100.88012944 71.02310726 101.45251465 76.71109009 C101.54011299 77.58087683 101.62771133 78.45066357 101.71796417 79.34680748 C101.88995127 81.0559277 102.06156439 82.76508559 102.23278046 84.47428322 C102.66219184 88.74072709 103.10633992 93.00494424 103.57495117 97.26727295 C103.66811363 98.12224554 103.76127609 98.97721813 103.85726166 99.85809898 C104.03342045 101.46700016 104.21259042 103.07557595 104.39548492 104.68372536 C104.88339937 109.15391139 105.08253365 113.50298262 105 118 C105.66 118.33 106.32 118.66 107 119 C109.14883598 99.57859601 111.21457719 80.15145373 113.10546875 60.703125 C113.19133366 59.82171341 113.27719856 58.94030182 113.36566544 58.03218079 C114.15715653 49.9051989 114.94457324 41.77782758 115.72631836 33.64990234 C116.1615926 29.12652895 116.60112622 24.60358656 117.04342079 20.08089447 C117.20894893 18.37932066 117.37281378 16.67758418 117.53496361 14.97568512 C117.75781887 12.63735087 117.98604876 10.29960136 118.21557617 7.96191406 C118.28050262 7.26622818 118.34542908 6.5705423 118.412323 5.85377502 C118.88601792 1.11398208 118.88601792 1.11398208 120 0 C122.73894085 -0.08858646 125.4525327 -0.11523479 128.19140625 -0.09765625 C129.01124496 -0.0962413 129.83108368 -0.09482635 130.67576599 -0.09336853 C133.30471382 -0.08775289 135.93357773 -0.07519779 138.5625 -0.0625 C140.34049357 -0.05748701 142.11848846 -0.05292376 143.89648438 -0.04882812 C148.26435545 -0.03777839 152.63216348 -0.02050331 157 0 C158.37852301 4.13556902 157.45827931 7.69609243 156.77514648 11.90234375 C156.631698 12.82151014 156.48824951 13.74067654 156.3404541 14.68769646 C155.85739056 17.77206262 155.36416254 20.85471872 154.87109375 23.9375 C154.52579102 26.13043979 154.18116563 28.32348633 153.83717346 30.51663208 C153.09805303 35.22057931 152.35458896 39.92381131 151.60766602 44.62652588 C150.43558178 52.006324 149.27234925 59.38749718 148.11132812 66.76904297 C147.91742304 68.00174612 147.72351795 69.23444927 147.52373695 70.50450706 C147.12958403 73.01029549 146.73545786 75.51608812 146.34135818 78.02188492 C145.74269387 81.82629314 145.14308289 85.63055122 144.54330444 89.43478394 C141.92075864 106.07859509 139.33568579 122.72781786 136.78515625 139.3828125 C136.54019315 140.98160374 136.54019315 140.98160374 136.2902813 142.61269379 C134.88689219 151.77369186 133.48583747 160.93504454 132.08981323 170.09716797 C131.38055851 174.75191323 130.66901438 179.40630304 129.95585442 184.06045151 C129.6965488 185.75619362 129.43822123 187.45208561 129.18094063 189.14813614 C128.83261698 191.44433933 128.48114238 193.74003878 128.12890625 196.03564453 C127.93369385 197.31682159 127.73848145 198.59799866 127.53735352 199.91799927 C127 203 127 203 126 206 C114.45 206 102.9 206 91 206 C90.484375 201.71 89.96875 197.42 89.4375 193 C87.57930768 177.64992845 85.69189312 162.30340416 83.78762817 146.95898438 C83.47052954 144.40019858 83.15451214 141.84127857 82.83956909 139.28222656 C82.39210759 135.64871346 81.94068145 132.01571356 81.48828125 128.3828125 C81.35300018 127.27793488 81.21771912 126.17305725 81.07833862 125.03469849 C80.88741135 123.5114949 80.88741135 123.5114949 80.69262695 121.95751953 C80.58255814 121.06888214 80.47248932 120.18024475 80.35908508 119.26467896 C80.03831334 116.84200702 80.03831334 116.84200702 79 114 C78.96079185 112.00038436 78.95556653 109.99950636 79 108 C76.86745518 110.13254482 77.28790231 114.63321675 76.984375 117.5871582 C76.88829956 118.48796112 76.79222412 119.38876404 76.6932373 120.31686401 C76.37481966 123.31109345 76.06251992 126.30593101 75.75 129.30078125 C75.53008665 131.37490177 75.30970313 133.4489725 75.08886719 135.522995 C74.50689719 140.99720435 73.92971931 146.47190703 73.35400391 151.94677734 C72.43329262 160.70051925 71.50803436 169.4537724 70.57775879 178.20650291 C70.25342393 181.26845685 69.9327373 184.33077827 69.61230469 187.3931427 C69.4135578 189.27033003 69.21467205 191.14750267 69.015625 193.0246582 C68.92728394 193.87832474 68.83894287 194.73199127 68.7479248 195.61152649 C68.66385376 196.39809631 68.57978271 197.18466614 68.49316406 197.99507141 C68.42164124 198.6758994 68.35011841 199.35672739 68.27642822 200.05818653 C67.99092388 202.0637566 67.49132618 204.03469529 67 206 C54.46 206 41.92 206 29 206 C28.49025635 202.46619629 27.9805127 198.93239258 27.45532227 195.29150391 C25.77412836 183.64017975 24.08916507 171.98940248 22.40223789 160.33890724 C21.37914623 153.27243326 20.35735983 146.2057751 19.33862305 139.13867188 C18.35622383 132.32367259 17.37021804 125.50920305 16.38197136 118.69504929 C16.00477539 116.09000441 15.62880609 113.48478162 15.25406075 110.87938309 C14.7306052 107.24154414 14.20286498 103.60435156 13.67407227 99.96728516 C13.51870499 98.8804393 13.36333771 97.79359344 13.20326233 96.67381287 C12.9866394 95.19300484 12.9866394 95.19300484 12.76564026 93.68228149 C12.64119821 92.82132685 12.51675615 91.9603722 12.38854313 91.07332802 C12.08858178 88.94815242 12.08858178 88.94815242 11 87 C10.82142403 85.30701991 10.68970031 83.60901099 10.58032227 81.91015625 C10.03460046 74.79481651 9.06195704 67.76314358 8.04231071 60.70458984 C7.70715062 58.38423965 7.37633986 56.06330301 7.04652405 53.7421875 C6.3473724 48.82757009 5.64262427 43.91376343 4.9375 39 C4.11630854 33.27281234 3.2974438 27.54530364 2.48288155 21.81716919 C2.15727763 19.534588 1.82824269 17.25251891 1.49900818 14.97045898 C1.29988382 13.57407806 1.10090629 12.17767619 0.90209961 10.78125 C0.72746689 9.56501953 0.55283417 8.34878906 0.37290955 7.09570312 C0 4 0 4 0 0 Z " fill="#000000" transform="translate(678,81)"/>
<path d="M0 0 C65.7009901 0 65.7009901 0 77.29296875 9.97265625 C90.07662308 23.18802874 90.34957779 41.07939695 90.26074219 58.39208984 C90.25004539 60.86450895 90.2606856 63.33619689 90.2734375 65.80859375 C90.30352236 95.58666424 90.30352236 95.58666424 82 107 C79.42600755 109.44926154 76.74678098 111.74732718 74 114 C76.13389112 123.47008389 78.2723424 132.9391328 80.41369629 142.40753174 C80.81634149 144.18791429 81.21892612 145.96831053 81.62145996 147.74871826 C82.94235999 153.59048575 84.2649655 159.43186369 85.5894165 165.27282715 C86.02620338 167.20004887 86.46253116 169.1273747 86.89837646 171.05480957 C87.5195126 173.8011548 88.14213333 176.54715739 88.765625 179.29296875 C88.96064606 180.15334747 89.15566711 181.0137262 89.3565979 181.900177 C90.63458573 187.5023594 92.00540834 193.07225174 93.51074219 198.6184082 C94 201 94 201 94 206 C82.78 206 71.56 206 60 206 C57.43911844 196.39669415 54.97123331 186.85138615 52.80078125 177.1640625 C52.52026413 175.91926117 52.23974701 174.67445984 51.95072937 173.39193726 C51.3652648 170.78913022 50.78107859 168.18607606 50.19897461 165.58251953 C49.45804213 162.2700312 48.70987447 158.95922286 47.95985126 155.64878273 C47.23568956 152.44654581 46.5186509 149.24271482 45.80078125 146.0390625 C45.53413162 144.86389069 45.26748199 143.68871887 44.99275208 142.47793579 C43.62236193 136.31487755 42.55471429 130.29065173 42 124 C39.03 124.495 39.03 124.495 36 125 C36.00222061 126.00002548 36.00444122 127.00005096 36.00672913 128.03038025 C36.02696068 137.43368339 36.0419722 146.83698215 36.05181217 156.24030209 C36.05704097 161.07516827 36.06413854 165.91001694 36.07543945 170.74487305 C36.08626847 175.4067712 36.09227686 180.06865246 36.09487724 184.73056221 C36.09673147 186.51324288 36.10035203 188.29592259 36.10573006 190.07859612 C36.11294069 192.5666596 36.11399093 195.05465243 36.11352539 197.54272461 C36.11712067 198.28718842 36.12071594 199.03165222 36.12442017 199.79867554 C36.11405216 204.88594784 36.11405216 204.88594784 35 206 C23.45 206 11.9 206 0 206 C0 138.02 0 70.04 0 0 Z M35 33 C35 52.8 35 72.6 35 93 C46.25683946 94.02899151 46.25683946 94.02899151 52 90 C53.94241646 87.14694273 54.25763008 84.82834352 54.29052734 81.41845703 C54.30328705 80.51717072 54.31604675 79.6158844 54.32919312 78.68728638 C54.33141876 77.72056 54.33364441 76.75383362 54.3359375 75.7578125 C54.3425943 74.75668427 54.3492511 73.75555603 54.35610962 72.72409058 C54.36622817 70.60758296 54.37092689 68.4910435 54.37060547 66.37451172 C54.37497475 63.14366823 54.4112928 59.91419527 54.44921875 56.68359375 C54.4550879 54.62500466 54.45905663 52.5664091 54.4609375 50.5078125 C54.47530853 49.54513458 54.48967957 48.58245667 54.50448608 47.59060669 C54.46494158 41.75788952 53.87582584 38.44821661 50 34 C45.51793698 31.75896849 40.01109879 33 35 33 Z " fill="#000000" transform="translate(395,81)"/>
<path d="M0 0 C0.556875 0.16209961 1.11375 0.32419922 1.6875 0.49121094 C4.19110435 1.04204619 6.43767357 1.1263263 9 1.140625 C29.99597843 1.48444752 29.99597843 1.48444752 39 7 C39.60457031 7.35964844 40.20914062 7.71929687 40.83203125 8.08984375 C48.38062805 13.45985818 52.81378302 24.07496047 54.65234375 32.85498047 C57.92906153 53.07214509 55.77948191 74.61151068 55 95 C54.34 95 53.68 95 53 95 C52.9175 95.680625 52.835 96.36125 52.75 97.0625 C50.93212778 104.18249954 46.09128111 110.93914593 40 115 C41.42835005 123.38042311 43.22947171 131.64628227 45.15234375 139.92578125 C45.45643415 141.24409771 45.76026679 142.56247365 46.06385803 143.88090515 C46.85785961 147.32662174 47.65468028 150.77167941 48.45233154 154.21655273 C49.72534329 159.71601475 50.99448901 165.21636852 52.26269722 170.71693993 C52.69967652 172.61007201 53.1382541 174.50283495 53.57688904 176.39558411 C54.39283524 179.92856796 55.19850665 183.4637114 56 187 C56.28755157 188.25187103 56.57510315 189.50374207 56.87136841 190.79354858 C57.14657318 192.02336456 57.42177795 193.25318054 57.70532227 194.52026367 C57.95411636 195.6207756 58.20291046 196.72128754 58.45924377 197.85514832 C59 201 59 201 59 207 C47.78 207 36.56 207 25 207 C22.60669086 198.02509073 20.27048685 189.1499285 18.30859375 180.08984375 C18.07721207 179.03446915 17.84583038 177.97909454 17.60743713 176.89173889 C16.88094379 173.57434517 16.15915527 170.25594912 15.4375 166.9375 C14.95147752 164.71542792 14.4651512 162.49342227 13.97851562 160.27148438 C12.84239906 155.0799843 11.71283949 149.88708929 10.58612061 144.69354248 C10.05907731 142.27149234 9.52706855 139.85061271 8.99267578 137.43017578 C8.71794434 136.17575684 8.44321289 134.92133789 8.16015625 133.62890625 C7.93078369 132.58935791 7.70141113 131.54980957 7.46508789 130.47875977 C7 128 7 128 7 125 C4.525 125.495 4.525 125.495 2 126 C2 152.73 2 179.46 2 207 C-9.88 207 -21.76 207 -34 207 C-34.020625 202.75125 -34.04125 198.5025 -34.0625 194.125 C-34.071604 192.7858252 -34.08070801 191.44665039 -34.09008789 190.06689453 C-34.09383423 188.49077393 -34.09383423 188.49077393 -34.09765625 186.8828125 C-34.10289307 185.80402832 -34.10812988 184.72524414 -34.11352539 183.61376953 C-34 181 -34 181 -33 179 C-33.66 178.67 -34.32 178.34 -35 178 C-34.34 178 -33.68 178 -33 178 C-33.0714624 177.22775085 -33.1429248 176.45550171 -33.21655273 175.65985107 C-34.02876401 165.85177923 -34.11957252 156.11924599 -34.07516479 146.28366852 C-34.06222635 143.39196542 -34.0558433 140.50030893 -34.05102539 137.60858154 C-34.03970221 131.48903302 -34.02040482 125.36952406 -34 119.25 C-33.97637783 112.11221357 -33.95604607 104.974448 -33.94406128 97.83663177 C-33.93757455 94.9858867 -33.92507812 92.13520794 -33.91235352 89.28448486 C-33.90872394 87.55065977 -33.90537185 85.81683406 -33.90234375 84.08300781 C-33.89717743 83.289328 -33.89201111 82.49564819 -33.88668823 81.67791748 C-33.79895856 77.70978856 -33.79895856 77.70978856 -35 74 C-34.70131344 71.99453311 -34.36628677 69.99422795 -34 68 C-34 67.01 -34 66.02 -34 65 C-34 62.33333333 -34 59.66666667 -34 57 C-34.01160156 56.06929687 -34.02320313 55.13859375 -34.03515625 54.1796875 C-34.08887462 47.68743828 -33.8724201 41.43409826 -33 35 C-33.66 34.67 -34.32 34.34 -35 34 C-34.34 34 -33.68 34 -33 34 C-33.0721875 33.28199219 -33.144375 32.56398437 -33.21875 31.82421875 C-33.84979465 24.78631805 -34.10901319 17.81417081 -34.125 10.75 C-34.12951172 9.90397217 -34.13402344 9.05794434 -34.13867188 8.1862793 C-34.12380528 2.12380528 -34.12380528 2.12380528 -33 1 C-30.73225109 0.89976591 -28.46136837 0.86918659 -26.19140625 0.8671875 C-25.50948715 0.86623077 -24.82756805 0.86527405 -24.12498474 0.86428833 C-22.67992053 0.86360661 -21.23485328 0.86546031 -19.78979492 0.86962891 C-17.57528807 0.87496916 -15.36098481 0.86968795 -13.14648438 0.86328125 C-11.74479122 0.86394219 -10.34309819 0.86522369 -8.94140625 0.8671875 C-7.65951416 0.86831543 -6.37762207 0.86944336 -5.05688477 0.87060547 C-2 1 -2 1 0 2 C0 1.34 0 0.68 0 0 Z M1 34 C1 53.8 1 73.6 1 94 C10.32315166 94.75786478 10.32315166 94.75786478 17 91 C20.49703297 85.75445055 20.17076091 80.37051779 20.203125 74.26171875 C20.21167511 73.00232231 20.21167511 73.00232231 20.22039795 71.71748352 C20.22981981 69.94488779 20.23637071 68.17227476 20.24023438 66.3996582 C20.24993022 63.70687862 20.28097591 61.01486606 20.3125 58.32226562 C20.3190321 56.5937545 20.32428176 54.86523795 20.328125 53.13671875 C20.3404718 52.34061691 20.3528186 51.54451508 20.36553955 50.72428894 C20.343783 45.18516494 19.43766404 41.00918625 17 36 C11.95650161 33.10557281 11.95650161 33.10557281 1 34 Z " fill="#000000" transform="translate(1076,80)"/>
<path d="M0 0 C9.85463836 10.18703688 12.02541691 21.77733869 13.125 35.375 C13.27388672 37.06109375 13.27388672 37.06109375 13.42578125 38.78125 C13.51472656 39.87179688 13.60367188 40.96234375 13.6953125 42.0859375 C13.77797363 43.0764209 13.86063477 44.0669043 13.94580078 45.08740234 C14 48 14 48 13.45654297 51.24462891 C12.73090752 53.95131868 12.73090752 53.95131868 14 56 C13.82236702 59.58374527 13.481419 63.14167985 13.15625 66.71484375 C12.80162204 70.00643515 12.80162204 70.00643515 14 73 C13.505 74.485 13.505 74.485 13 76 C13.165 76.61875 13.33 77.2375 13.5 77.875 C14 80 14 80 13.5390625 82.08984375 C12.81933457 85.97533151 12.85493844 89.74540349 12.875 93.6875 C12.87113281 94.45900391 12.86726563 95.23050781 12.86328125 96.02539062 C12.77163886 100.1446881 12.77163886 100.1446881 14 104 C13.66666667 106 13.33333333 108 13 110 C13.33 110.66 13.66 111.32 14 112 C14.0163905 113.96649182 13.96415741 115.93372608 13.87890625 117.8984375 C13.83056641 119.10113281 13.78222656 120.30382812 13.73242188 121.54296875 C13.67634766 122.80753906 13.62027344 124.07210937 13.5625 125.375 C13.11459951 135.82439439 13.11459951 135.82439439 13.01171875 146.28125 C13.08322329 161.86923953 12.35572963 178.17725984 1 190 C-10.73493044 200.58741879 -24.7045353 201.86665111 -39.83203125 201.3828125 C-51.66772865 200.70355753 -61.5401466 195.88499858 -69.75 187.375 C-81.83992211 172.81086127 -80.12191056 152.43155452 -80.3515625 134.66015625 C-80.37528227 133.017891 -80.39917672 131.37562827 -80.42323303 129.73336792 C-80.49765247 124.50982812 -80.56186542 119.28618642 -80.625 114.0625 C-80.63604893 113.17722248 -80.64709785 112.29194496 -80.6584816 111.37984085 C-81.18960973 68.80478121 -81.18960973 68.80478121 -80.6875 48.9375 C-80.67044006 48.17921906 -80.65338013 47.42093811 -80.63580322 46.63967896 C-80.20778655 28.99906752 -79.11708476 12.54466494 -66.375 -0.6875 C-49.72768452 -16.101681 -16.73853381 -14.45308015 0 0 Z M-41 23 C-46.15227311 28.59129251 -45.56044848 34.39226036 -45.50170898 41.703125 C-45.50711197 42.98183472 -45.51251495 44.26054443 -45.51808167 45.57800293 C-45.53200731 49.07398054 -45.52088736 52.56946439 -45.50437045 56.06541443 C-45.49048598 59.73013667 -45.49698389 63.39483124 -45.50050354 67.05957031 C-45.50320299 73.21297124 -45.48975303 79.36617681 -45.46655273 85.51953125 C-45.43994454 92.62578076 -45.43819682 99.73170373 -45.4499411 106.83798599 C-45.46073393 113.68414726 -45.45452004 120.53019083 -45.44038582 127.37634277 C-45.43463903 130.28530675 -45.43469836 133.19418421 -45.43945122 136.10314941 C-45.44512558 140.16790431 -45.4258693 144.23217475 -45.40405273 148.296875 C-45.40855438 149.50017456 -45.41305603 150.70347412 -45.41769409 151.9432373 C-45.35763436 158.67554492 -45.16290136 163.87004553 -40.125 168.85546875 C-37.56736873 170.23301648 -35.89261787 170.36982322 -33 170.3125 C-32.154375 170.30863281 -31.30875 170.30476562 -30.4375 170.30078125 C-27.71174136 169.96442962 -26.23149416 169.61318432 -24 168 C-19.97431809 162.21070584 -20.57767278 156.06240967 -20.61181641 149.296875 C-20.60655945 148.01816528 -20.60130249 146.73945557 -20.59588623 145.42199707 C-20.58224717 141.92610587 -20.587497 138.43048124 -20.59702349 134.93458557 C-20.60463785 131.26985983 -20.59756955 127.60515636 -20.59286499 123.94042969 C-20.5874126 117.78706785 -20.59458544 111.63381416 -20.60888672 105.48046875 C-20.62521231 98.374229 -20.61992343 91.2682475 -20.6034075 84.16201401 C-20.58977786 78.05227326 -20.58788017 71.94261009 -20.59572351 65.83285904 C-20.60039193 62.18747985 -20.60104786 58.54222191 -20.59111404 54.89685059 C-20.58081046 50.83212071 -20.59510581 46.76783355 -20.61181641 42.703125 C-20.60574371 41.49982544 -20.59967102 40.29652588 -20.59341431 39.0567627 C-20.64447377 32.35557313 -20.8659265 27.2460047 -25.75 22.1875 C-31.35066328 19.23159438 -35.82536081 19.43524856 -41 23 Z " fill="#000000" transform="translate(369,89)"/>
<path d="M0 0 C8.38681267 6.99976288 14.20153891 16.24878885 15.28354645 27.26371002 C15.44957918 30.32004102 15.55808481 33.37296316 15.64355469 36.43261719 C15.68101177 37.5746397 15.71846886 38.71666222 15.757061 39.89329147 C16.14175072 52.55993008 16.21422799 65.22683074 16.234375 77.8984375 C16.23861607 79.73957752 16.23861607 79.73957752 16.24294281 81.61791229 C16.25774588 88.08560893 16.26709968 94.55328426 16.27148438 101.02099609 C16.27701186 107.65081063 16.30118329 114.28042427 16.32945633 120.91017532 C16.34813677 126.06629006 16.3532907 131.22235619 16.35482025 136.37850189 C16.35782355 138.8230985 16.36577223 141.26769475 16.37900543 143.71225739 C16.55851971 179.34672644 16.55851971 179.34672644 4.9921875 191.91015625 C-6.96845671 203.25797593 -20.60449593 205.41436633 -36.52734375 205.00390625 C-47.82087076 204.42221358 -58.80409038 199.87281516 -66.84375 191.81640625 C-76.91931755 179.34789141 -77.4353393 163.06683777 -76.96875 147.6953125 C-76.11410156 147.64632812 -75.25945312 147.59734375 -74.37890625 147.546875 C-72.72181641 147.43472656 -72.72181641 147.43472656 -71.03125 147.3203125 C-69.37802734 147.21589844 -69.37802734 147.21589844 -67.69140625 147.109375 C-66.79292969 146.97273437 -65.89445312 146.83609375 -64.96875 146.6953125 C-64.47375 145.7053125 -64.47375 145.7053125 -63.96875 144.6953125 C-61.92749023 144.28466797 -61.92749023 144.28466797 -59.27734375 144.0625 C-58.33310547 143.97871094 -57.38886719 143.89492187 -56.41601562 143.80859375 C-55.42279297 143.72996094 -54.42957031 143.65132812 -53.40625 143.5703125 C-52.40916016 143.48394531 -51.41207031 143.39757812 -50.38476562 143.30859375 C-47.91335012 143.09574457 -45.44151775 142.89171929 -42.96875 142.6953125 C-42.99195313 143.66210938 -43.01515625 144.62890625 -43.0390625 145.625 C-43.70820226 159.57444695 -43.70820226 159.57444695 -37.96875 171.6953125 C-33.33960292 173.23836153 -28.80280685 173.19075024 -23.96875 172.6953125 C-20.22606931 170.78578154 -19.28272259 169.56250452 -17.85986328 165.63256836 C-16.67524126 161.18225693 -16.71709307 156.84032237 -16.7734375 152.26171875 C-16.7762674 151.38378159 -16.77909729 150.50584442 -16.78201294 149.6013031 C-16.79313402 146.81999605 -16.81822328 144.03902086 -16.84375 141.2578125 C-16.85379025 139.36263489 -16.86291427 137.46745218 -16.87109375 135.57226562 C-16.89304685 130.94648833 -16.9275204 126.32095652 -16.96875 121.6953125 C-17.71640625 122.04464844 -18.4640625 122.39398438 -19.234375 122.75390625 C-20.21921875 123.20894531 -21.2040625 123.66398438 -22.21875 124.1328125 C-23.19328125 124.58527344 -24.1678125 125.03773438 -25.171875 125.50390625 C-33.9565508 129.24598184 -44.73323297 128.89968905 -53.6640625 125.72265625 C-63.19797447 121.4727938 -69.3567273 115.23727818 -73.25390625 105.4765625 C-76.46197785 95.63387688 -77.12466627 86.2048062 -77.13671875 75.9140625 C-77.14004715 74.90170532 -77.14337555 73.88934814 -77.14680481 72.84631348 C-77.15184282 70.7116745 -77.15421411 68.57702773 -77.15405273 66.44238281 C-77.15622498 63.23228405 -77.17437528 60.02253751 -77.19335938 56.8125 C-77.30513164 16.49333812 -77.30513164 16.49333812 -63.96875 2.6953125 C-47.00506127 -12.41670598 -18.29182772 -13.18867288 0 0 Z M-40.78125 24.8828125 C-44.80298941 31.02125687 -44.26216364 39.06778737 -44.234375 46.09765625 C-44.23628845 47.17479385 -44.2382019 48.25193146 -44.24017334 49.36170959 C-44.24152879 51.63005813 -44.2378773 53.8984146 -44.22949219 56.16674805 C-44.21879434 59.61850609 -44.22940418 63.06974248 -44.2421875 66.52148438 C-44.24086559 68.73437614 -44.23830254 70.94726758 -44.234375 73.16015625 C-44.23842346 74.18229721 -44.24247192 75.20443817 -44.24664307 76.2575531 C-44.31662158 86.90352122 -44.31662158 86.90352122 -39.90625 96.1953125 C-34.51410868 98.94874637 -29.95142354 99.28036371 -24.15625 97.5703125 C-20.5935937 95.47463232 -18.94152955 94.33736706 -16.96875 90.6953125 C-15.8463797 83.64395623 -15.8098184 76.43810665 -15.80078125 69.3125 C-15.79745285 68.37278351 -15.79412445 67.43306702 -15.79069519 66.46487427 C-15.78567603 64.49693281 -15.78328529 62.528983 -15.78344727 60.56103516 C-15.78125013 57.57049541 -15.76301184 54.58031905 -15.74414062 51.58984375 C-15.74120764 49.66406374 -15.73922221 47.73828201 -15.73828125 45.8125 C-15.73109573 44.93101288 -15.72391022 44.04952576 -15.71650696 43.1413269 C-15.74219399 36.08861705 -15.80491443 29.16826744 -20.59375 23.6953125 C-28.0369631 19.28451955 -33.65862413 20.21626451 -40.78125 24.8828125 Z " fill="#0064BE" transform="translate(1232.96875,86.3046875)"/>
<path d="M0 0 C5.12040352 0.50250563 10.28627875 0.30952602 15.42553711 0.23803711 C19.8371377 29.83392761 24.19850368 59.43672535 28.48803711 89.05053711 C28.59403858 89.78230164 28.70004005 90.51406616 28.80925369 91.26800537 C31.78448528 111.81052617 34.73631885 132.35630042 37.66241455 152.90588379 C40.19511381 170.69163892 42.79564573 188.46634688 45.42553711 206.23803711 C34.20553711 206.23803711 22.98553711 206.23803711 11.42553711 206.23803711 C10.20026666 200.72432011 9.10106736 195.55947863 8.35522461 190.01538086 C8.09418945 188.09628906 8.09418945 188.09628906 7.82788086 186.13842773 C7.65385742 184.83067383 7.47983398 183.52291992 7.30053711 182.17553711 C7.1172932 180.81937 6.93370202 179.46324977 6.74975586 178.10717773 C6.30494557 174.81792273 5.8647729 171.52804115 5.42553711 168.23803711 C-2.82446289 167.90803711 -11.07446289 167.57803711 -19.57446289 167.23803711 C-19.92379883 169.96956055 -20.27313477 172.70108398 -20.63305664 175.51538086 C-20.97293489 178.14987337 -21.31427601 180.78417246 -21.65576172 183.41845703 C-21.89297235 185.25452258 -22.12865292 187.09078645 -22.36279297 188.92724609 C-22.69889185 191.56132338 -23.04042113 194.19464692 -23.38305664 196.82788086 C-23.53936806 198.06694435 -23.53936806 198.06694435 -23.69883728 199.33103943 C-24.46059118 205.1241654 -24.46059118 205.1241654 -25.57446289 206.23803711 C-28.09540366 206.32651454 -30.58877182 206.35331012 -33.10961914 206.33569336 C-34.23949501 206.33357094 -34.23949501 206.33357094 -35.39219666 206.33140564 C-37.80715849 206.32579087 -40.2220289 206.31323594 -42.63696289 206.30053711 C-44.2704251 206.29552401 -45.90388875 206.29096077 -47.53735352 206.28686523 C-51.54975874 206.27581665 -55.5620953 206.25854217 -59.57446289 206.23803711 C-59.39270508 204.94555054 -59.39270508 204.94555054 -59.20727539 203.62695312 C-58.75511231 200.39029156 -58.30850285 197.15295926 -57.86547852 193.91503906 C-57.67364429 192.52118314 -57.47968331 191.12761802 -57.28344727 189.734375 C-56.22466875 182.20678388 -55.30454419 174.85480545 -55.57446289 167.23803711 C-54.91446289 167.23803711 -54.25446289 167.23803711 -53.57446289 167.23803711 C-53.61772705 165.81599976 -53.61772705 165.81599976 -53.66186523 164.36523438 C-53.65632264 159.57171442 -52.90992878 154.93079228 -52.17602539 150.20288086 C-52.02543671 149.20341934 -51.87484802 148.20395782 -51.71969604 147.17420959 C-51.39041807 144.99066046 -51.05895827 142.8074395 -50.72558594 140.62451172 C-49.81140481 134.63164084 -48.91657438 128.63587325 -48.01977539 122.64038086 C-47.82687927 121.35312103 -47.63398315 120.06586121 -47.4352417 118.73959351 C-45.15260596 103.48717166 -42.94376605 88.22412066 -40.75286865 72.95828247 C-40.301657 69.81528103 -39.84816623 66.67262176 -39.39263916 63.53024292 C-38.85176205 59.79874458 -38.31498715 56.06667915 -37.78137589 52.33413506 C-37.58329505 50.95319745 -37.38381316 49.57245997 -37.182827 48.19194221 C-36.90641649 46.29121232 -36.63581888 44.38963985 -36.36547852 42.48803711 C-36.13519958 40.88702148 -36.13519958 40.88702148 -35.90026855 39.25366211 C-35.51289719 36.19207966 -35.51289719 36.19207966 -35.58752441 32.90991211 C-35.57446289 30.23803711 -35.57446289 30.23803711 -34.57446289 29.23803711 C-34.20390082 27.09841283 -33.89062771 24.94881363 -33.60180664 22.79663086 C-33.42456055 21.49145508 -33.24731445 20.1862793 -33.06469727 18.84155273 C-32.88036189 17.45289288 -32.6961183 16.06422084 -32.51196289 14.67553711 C-32.32419797 13.28290687 -32.13605188 11.89032797 -31.94750977 10.49780273 C-31.48606369 7.078369 -31.02856184 3.65845302 -30.57446289 0.23803711 C-26.76248177 0.03883298 -22.9498814 -0.14416727 -19.13696289 -0.32446289 C-18.06768555 -0.38053711 -16.9984082 -0.43661133 -15.89672852 -0.49438477 C-10.48016271 -0.74285109 -5.36857465 -0.73896631 0 0 Z M-6.57446289 50.23803711 C-6.57446289 51.88803711 -6.57446289 53.53803711 -6.57446289 55.23803711 C-6.24446289 55.23803711 -5.91446289 55.23803711 -5.57446289 55.23803711 C-5.57446289 53.58803711 -5.57446289 51.93803711 -5.57446289 50.23803711 C-5.90446289 50.23803711 -6.23446289 50.23803711 -6.57446289 50.23803711 Z M-6.57446289 57.23803711 C-8.37064948 59.03422369 -8.11160972 61.76724253 -8.40649414 64.20385742 C-8.56335693 65.48319153 -8.72021973 66.76252563 -8.88183594 68.08062744 C-9.05038457 69.49245169 -9.21875554 70.90429716 -9.38696289 72.31616211 C-9.5622034 73.76336195 -9.73774492 75.21052538 -9.91357422 76.65765381 C-10.28275426 79.7039837 -10.64894195 82.75065404 -11.01293945 85.79760742 C-11.47541195 89.66771901 -11.94407418 93.53704772 -12.41493225 97.406147 C-12.77918335 100.4036865 -13.14055601 103.40156775 -13.50106812 106.39955902 C-13.67253697 107.82352368 -13.84473598 109.24740064 -14.01773071 110.67118073 C-15.08996884 119.51583299 -15.95177656 128.34903247 -16.57446289 137.23803711 C-9.97446289 137.23803711 -3.37446289 137.23803711 3.42553711 137.23803711 C2.28353894 126.04473088 2.28353894 126.04473088 1.13305664 114.85229492 C0.94668216 113.04598124 0.76032168 111.23966612 0.57397461 109.43334961 C0.47935944 108.51650391 0.38474426 107.5996582 0.28726196 106.6550293 C-0.28462495 101.09889955 -0.84442438 95.54171851 -1.39367676 89.98330688 C-1.74009374 86.48881566 -2.09304631 82.99500215 -2.44714355 79.50128174 C-2.61508157 77.82852326 -2.78004954 76.15546388 -2.9420166 74.4821167 C-3.16864095 72.14471009 -3.40553156 69.80855582 -3.64477539 67.47241211 C-3.70925873 66.78041718 -3.77374207 66.08842224 -3.84017944 65.37545776 C-4.20541589 61.91647306 -4.59864568 60.20176292 -6.57446289 57.23803711 Z " fill="#000000" transform="translate(986.574462890625,80.761962890625)"/>
<path d="M0 0 C13.94434685 14.76762932 12.95176374 34.48437788 13 53.5859375 C12.8671875 55.9921875 12.8671875 55.9921875 11.8671875 57.9921875 C0.9771875 57.9921875 -9.9128125 57.9921875 -21.1328125 57.9921875 C-21.92364669 54.82885074 -22.23914304 52.92446856 -22.16015625 49.796875 C-22.14637939 49.0028125 -22.13260254 48.20875 -22.1184082 47.390625 C-22.10253662 46.55789062 -22.08666504 45.72515625 -22.0703125 44.8671875 C-21.49055385 33.45667396 -21.49055385 33.45667396 -25.51953125 23.2421875 C-27.18790871 21.68594651 -27.18790871 21.68594651 -30.1328125 21.9921875 C-30.1328125 21.3321875 -30.1328125 20.6721875 -30.1328125 19.9921875 C-35.16988499 21.5704041 -35.16988499 21.5704041 -38.5078125 25.3046875 C-41.5801242 38.51562779 -40.26526832 51.49650587 -33.67578125 63.5546875 C-28.5540602 71.64571012 -21.98608424 78.19966886 -15.1953125 84.8671875 C2.4171197 102.22623281 12.82582139 120.94732829 13.05786133 146.19726562 C13.0368411 163.05225839 11.55462864 178.18016143 -0.74609375 190.8671875 C-9.65860238 198.8023834 -20.79619048 201.56734377 -32.5078125 201.4296875 C-33.4253833 201.42138916 -34.3429541 201.41309082 -35.28833008 201.40454102 C-46.74139126 201.12011236 -56.63258922 197.94827884 -65.1328125 189.9921875 C-72.92804375 180.27021041 -76.10613354 169.80596178 -76.44921875 157.50390625 C-76.46999985 156.80070755 -76.49078094 156.09750885 -76.51219177 155.3730011 C-76.57721365 153.14198933 -76.63635026 150.91086681 -76.6953125 148.6796875 C-76.73854286 147.16079616 -76.78215855 145.64191573 -76.82617188 144.12304688 C-76.93284584 140.4128763 -77.03424471 136.70258329 -77.1328125 132.9921875 C-73.19564092 132.51029764 -69.25801874 132.03218713 -65.3203125 131.5546875 C-64.22009766 131.41998047 -63.11988281 131.28527344 -61.98632812 131.14648438 C-55.04360085 130.3068035 -48.10145834 129.57984131 -41.1328125 128.9921875 C-41.11822998 129.96043457 -41.10364746 130.92868164 -41.08862305 131.92626953 C-41.03039683 135.53845074 -40.95316714 139.15002433 -40.87036133 142.76171875 C-40.83722583 144.32118831 -40.8091588 145.88077452 -40.78637695 147.44042969 C-40.75261969 149.68995602 -40.70029746 151.93842437 -40.64453125 154.1875 C-40.63814133 154.878367 -40.6317514 155.56923401 -40.62516785 156.28103638 C-40.48765259 160.86784008 -39.56251876 164.09762558 -37.1328125 167.9921875 C-35.00518122 169.02926793 -35.00518122 169.02926793 -32.6328125 169.0546875 C-31.859375 169.12816406 -31.0859375 169.20164062 -30.2890625 169.27734375 C-28.11212502 169.14538895 -28.11212502 169.14538895 -26.4765625 167.92578125 C-21.01593093 160.0681864 -22.32995483 147.80893278 -23.7578125 138.8046875 C-27.5844341 123.11036782 -39.17593313 111.42669074 -50.5859375 100.6640625 C-52.1328125 98.9921875 -52.1328125 98.9921875 -52.1328125 96.9921875 C-52.7928125 96.9921875 -53.4528125 96.9921875 -54.1328125 96.9921875 C-55.36621094 95.62207031 -55.36621094 95.62207031 -56.7421875 93.6953125 C-57.4993103 92.63691162 -57.4993103 92.63691162 -58.27172852 91.55712891 C-58.80338623 90.79319824 -59.33504395 90.02926758 -59.8828125 89.2421875 C-60.42413818 88.46665527 -60.96546387 87.69112305 -61.52319336 86.89208984 C-74.30446705 68.28120044 -78.97484251 47.89408208 -75.20947266 25.56713867 C-73.39893352 15.91358024 -71.37487142 7.9193743 -64.1328125 0.9921875 C-63.64941406 0.50234375 -63.16601562 0.0125 -62.66796875 -0.4921875 C-46.66530546 -15.67319815 -15.91308771 -14.98045254 0 0 Z " fill="#000000" transform="translate(661.1328125,89.0078125)"/>
<path d="M0 0 C9.39125518 8.46022558 12.36489164 21.29481045 13.125 33.5078125 C13.1822205 41.86836264 12.62681168 50.15949088 12.125 58.5078125 C0.905 58.5078125 -10.315 58.5078125 -21.875 58.5078125 C-22.25 47.6953125 -22.25 47.6953125 -22.35302734 44.36010742 C-22.28875468 32.41078487 -22.28875468 32.41078487 -27.125 22.2578125 C-30.56544292 21.31950988 -32.49729023 21.33295693 -35.875 22.5078125 C-40.71406259 28.18119623 -40.28517053 36.40958366 -39.875 43.5078125 C-38.30946338 62.98670088 -25.3198022 76.22497809 -12.125 89.1953125 C-0.15995865 100.97897524 8.73613939 114.82419103 12.125 131.5078125 C12.30804688 132.35214844 12.49109375 133.19648438 12.6796875 134.06640625 C15.17243395 153.33052577 13.94838138 172.27274043 3 188.6953125 C-4.67589363 197.1387955 -15.20039781 201.16774843 -26.3359375 201.8203125 C-39.63114077 202.30058801 -52.53265356 200.68084882 -62.875 191.5078125 C-71.875 181.574991 -71.875 181.574991 -71.875 175.5078125 C-72.865 175.1778125 -73.855 174.8478125 -74.875 174.5078125 C-74.215 174.5078125 -73.555 174.5078125 -72.875 174.5078125 C-73.184375 173.6003125 -73.49375 172.6928125 -73.8125 171.7578125 C-76.32234776 162.73304076 -75.98900689 153.17669151 -76.0625 143.8828125 C-76.08207764 142.40542603 -76.08207764 142.40542603 -76.10205078 140.89819336 C-76.10317871 139.97272705 -76.10430664 139.04726074 -76.10546875 138.09375 C-76.10957764 137.2589209 -76.11368652 136.4240918 -76.11791992 135.56396484 C-75.875 133.5078125 -75.875 133.5078125 -73.875 131.5078125 C-71.1171875 131.34765625 -71.1171875 131.34765625 -67.75 131.4453125 C-64.00291293 131.50700987 -60.39638523 131.56376449 -56.6875 131.0078125 C-52.05687733 130.40051772 -47.53670421 130.42183845 -42.875 130.5078125 C-42.545 129.8478125 -42.215 129.1878125 -41.875 128.5078125 C-40.58319453 131.09142344 -40.79397123 132.89603534 -40.84765625 135.78515625 C-40.86602539 137.39293945 -40.86602539 137.39293945 -40.88476562 139.03320312 C-40.91937966 141.27285963 -40.95830076 143.51245455 -41.00195312 145.75195312 C-41.17687952 156.2996409 -41.17687952 156.2996409 -38.875 166.5078125 C-36.38233279 168.8665588 -35.34065994 169.4690075 -31.875 169.7578125 C-29.38765508 169.55053376 -27.26896044 169.14757779 -24.875 168.5078125 C-21.03159004 153.30575346 -21.82059218 136.92521385 -29.9609375 123.2109375 C-33.7572225 117.84965337 -38.31448067 113.2120519 -42.875 108.5078125 C-63.31973633 87.25516856 -76.46829774 66.67794536 -76.02734375 36.203125 C-75.15102351 20.69899761 -71.4875451 8.64190502 -60.1875 -2.2421875 C-44.00758758 -15.79247744 -15.63497776 -12.44283647 0 0 Z " fill="#000000" transform="translate(162.875,88.4921875)"/>
<path d="M0 0 C1.65213501 -0.00350464 1.65213501 -0.00350464 3.33764648 -0.00708008 C9.15533801 0.01662753 14.97257706 0.05151764 20.78997803 0.11322021 C22.86731273 0.13281368 24.94457238 0.14459315 27.02197266 0.15478516 C30.45348896 0.17416256 33.8837069 0.22163967 37.31463623 0.28741455 C39.24944118 0.31939921 41.18457902 0.32873388 43.11962891 0.33740234 C53.57103623 0.58832484 64.59250125 2.80851935 72.37890625 10.34375 C80.73274702 20.3858998 83.78340685 31.6158687 84.21875 44.4609375 C84.24249191 45.1591713 84.26623383 45.85740509 84.29069519 46.57679749 C84.3644658 48.84532602 84.42987111 51.11394141 84.4921875 53.3828125 C84.52437881 54.5474855 84.52437881 54.5474855 84.55722046 55.73568726 C85.8927639 106.35037689 85.8927639 106.35037689 75.55078125 118.39453125 C74.99519531 118.96816406 74.43960938 119.54179687 73.8671875 120.1328125 C73.28066406 120.75800781 72.69414062 121.38320312 72.08984375 122.02734375 C60.58102661 133.2066651 45.1098247 132.33056844 29.8671875 133.1328125 C29.8671875 157.2228125 29.8671875 181.3128125 29.8671875 206.1328125 C17.9871875 206.1328125 6.1071875 206.1328125 -6.1328125 206.1328125 C-6.15592819 179.42140416 -6.17379002 152.70999821 -6.18462467 125.99858189 C-6.18978834 113.59695153 -6.19683239 101.19532748 -6.20825195 88.79370117 C-6.21819662 77.98868634 -6.22466541 67.18367608 -6.22690099 56.3786568 C-6.22820847 50.6536677 -6.23129665 44.92869167 -6.23854256 39.20370674 C-6.24529935 33.82187162 -6.24743016 28.44005505 -6.24592018 23.05821609 C-6.24619666 21.07680218 -6.24820379 19.09538769 -6.25201797 17.11397743 C-6.25694991 14.42118163 -6.25581265 11.72845704 -6.25306702 9.03565979 C-6.25597986 8.24092823 -6.2588927 7.44619667 -6.26189381 6.62738234 C-6.2447219 0.45144854 -6.11561155 0.00710763 0 0 Z M28.8671875 33.1328125 C28.77293155 35.28024799 28.74976102 37.43082276 28.75366211 39.58032227 C28.75351608 40.25346466 28.75337006 40.92660706 28.7532196 41.62014771 C28.75391872 43.85487034 28.76171098 46.0895106 28.76953125 48.32421875 C28.77139544 49.86978612 28.77281934 51.41535407 28.77381897 52.96092224 C28.7776441 57.03638327 28.78747433 61.11180887 28.79852295 65.18725586 C28.80873718 69.34293132 28.81331661 73.49861249 28.81835938 77.65429688 C28.82909661 85.81381837 28.84617296 93.97331103 28.8671875 102.1328125 C30.76269772 102.18722906 32.6586667 102.22579285 34.5546875 102.2578125 C35.61042969 102.28101563 36.66617188 102.30421875 37.75390625 102.328125 C41.84531669 102.07144931 44.74053955 101.29969787 47.6171875 98.3203125 C49.77298953 94.54765895 49.99212782 90.64174703 50.01245117 86.36181641 C50.01883102 85.44381256 50.02521088 84.52580872 50.03178406 83.57998657 C50.03289688 82.59968475 50.0340097 81.61938293 50.03515625 80.609375 C50.03848465 79.58983734 50.04181305 78.57029968 50.04524231 77.51986694 C50.05029711 75.36643931 50.05265108 73.21300387 50.05249023 71.05957031 C50.05467502 67.77656052 50.07284163 64.49388782 50.09179688 61.2109375 C50.09473148 59.11458448 50.09671583 57.01822987 50.09765625 54.921875 C50.10484177 53.94562164 50.11202728 52.96936829 50.11943054 51.96353149 C50.13779623 42.62596605 50.13779623 42.62596605 45.6640625 34.74609375 C42.32678629 32.82110063 39.95008848 32.50675452 36.1171875 32.3203125 C34.96734375 32.25199219 33.8175 32.18367188 32.6328125 32.11328125 C29.95743128 31.80853686 29.95743128 31.80853686 28.8671875 33.1328125 Z " fill="#000000" transform="translate(194.1328125,80.8671875)"/>
<path d="M0 0 C5.05828035 0.54481051 10.02976351 0.66297071 15.11328125 0.63110352 C15.98697357 0.62968857 16.86066589 0.62827362 17.76083374 0.6268158 C20.51116578 0.62128401 23.26141193 0.60874501 26.01171875 0.59594727 C27.89322798 0.59092343 29.7747385 0.58636208 31.65625 0.58227539 C36.23310527 0.57133706 40.80989752 0.55412088 45.38671875 0.53344727 C46.84197975 3.44396926 46.51657762 6.00901137 46.51953125 9.25610352 C46.52048798 9.91678329 46.5214447 10.57746307 46.52243042 11.25816345 C46.52311091 12.65436905 46.52126575 14.05057782 46.51708984 15.44677734 C46.51173118 17.5909734 46.51704354 19.73496079 46.5234375 21.87915039 C46.52277686 23.23396856 46.521496 24.58878661 46.51953125 25.94360352 C46.51840332 27.18247314 46.51727539 28.42134277 46.51611328 29.69775391 C46.38671875 32.53344727 46.38671875 32.53344727 45.38671875 33.53344727 C42.35715632 33.62215368 39.34985165 33.64871308 36.3203125 33.63110352 C35.51533325 33.63009644 34.710354 33.62908936 33.88098145 33.62805176 C30.86204614 33.62280341 27.84313108 33.60884226 24.82421875 33.59594727 C14.70765625 33.56500977 14.70765625 33.56500977 4.38671875 33.53344727 C4.71671875 51.02344727 5.04671875 68.51344727 5.38671875 86.53344727 C21.72171875 87.02844727 21.72171875 87.02844727 38.38671875 87.53344727 C38.38671875 97.10344727 38.38671875 106.67344727 38.38671875 116.53344727 C35.19048828 116.62432617 35.19048828 116.62432617 31.9296875 116.71704102 C29.86446696 116.77886142 27.79929957 116.84223623 25.73413086 116.90576172 C24.29960872 116.9490552 22.86503691 116.99073425 21.43041992 117.03076172 C19.36752355 117.08859993 17.30487592 117.15225479 15.2421875 117.21704102 C14.00106201 117.25369873 12.75993652 117.29035645 11.48120117 117.328125 C8.35118528 117.40488848 8.35118528 117.40488848 5.38671875 118.53344727 C5.05671875 137.01344727 4.72671875 155.49344727 4.38671875 174.53344727 C17.83472847 174.82280883 17.83472847 174.82280883 31.28295898 175.1015625 C32.96208564 175.13966888 34.64120415 175.17813659 36.3203125 175.21704102 C37.20046021 175.23351685 38.08060791 175.24999268 38.98742676 175.26696777 C45.27264695 175.41937547 45.27264695 175.41937547 46.38671875 176.53344727 C46.38671875 186.43344727 46.38671875 196.33344727 46.38671875 206.53344727 C20.97671875 206.53344727 -4.43328125 206.53344727 -30.61328125 206.53344727 C-30.90435872 173.7536461 -30.90435872 173.7536461 -31.01757812 159.53735352 C-31.09445925 149.89261608 -31.17261474 140.24790698 -31.26147461 130.60327148 C-31.5656813 97.42286564 -31.74593754 64.2547181 -31.23578906 31.07538033 C-31.2032655 28.94888341 -31.17226183 26.82236801 -31.14138985 24.69584656 C-31.08375144 20.80107095 -31.01572291 16.90652563 -30.94506836 13.01196289 C-30.92695791 11.85392654 -30.90884747 10.6958902 -30.89018822 9.50276184 C-30.86885637 8.45895859 -30.84752453 7.41515533 -30.82554626 6.33972168 C-30.80868239 5.42969643 -30.79181852 4.51967117 -30.77444363 3.5820694 C-30.61328125 1.53344727 -30.61328125 1.53344727 -29.61328125 0.53344727 C-25.93028634 0.47269683 -22.26052322 0.51282746 -18.578125 0.57250977 C-14.99265969 0.60783455 -11.70384952 0.54816716 -8.15234375 -0.02905273 C-5.11496293 -0.40453469 -2.98493816 -0.36226712 0 0 Z " fill="#000000" transform="translate(872.61328125,80.466552734375)"/>
<path d="M0 0 C11.32611985 -0.02255024 22.65222491 -0.04091463 33.97836208 -0.05181217 C39.23696664 -0.05704119 44.4955551 -0.06413918 49.75415039 -0.07543945 C54.82453127 -0.08626766 59.89489662 -0.09227669 64.96528816 -0.09487724 C66.90426948 -0.09673161 68.84324991 -0.10035245 70.78222466 -0.10573006 C73.4882176 -0.1129396 76.19414556 -0.11399098 78.90014648 -0.11352539 C80.11502495 -0.1189183 80.11502495 -0.1189183 81.35444641 -0.12442017 C86.88594784 -0.11405216 86.88594784 -0.11405216 88 1 C88.1002093 3.27947792 88.13081303 5.56207135 88.1328125 7.84375 C88.13376923 8.52804077 88.13472595 9.21233154 88.13571167 9.9173584 C88.1363933 11.36661877 88.13454023 12.81588218 88.13037109 14.26513672 C88.12502252 16.49062928 88.1303166 18.71592001 88.13671875 20.94140625 C88.13605797 22.34635461 88.1347768 23.75130285 88.1328125 25.15625 C88.13168457 26.44337891 88.13055664 27.73050781 88.12939453 29.05664062 C88 32 88 32 87 33 C85.07332493 33.08748207 83.14348139 33.10697334 81.21484375 33.09765625 C79.46010742 33.09282227 79.46010742 33.09282227 77.66992188 33.08789062 C76.43822266 33.07951172 75.20652344 33.07113281 73.9375 33.0625 C72.08415039 33.05573242 72.08415039 33.05573242 70.19335938 33.04882812 C67.12885883 33.03699608 64.06445279 33.02051173 61 33 C61.00911329 34.32828024 61.00911329 34.32828024 61.01841068 35.68339443 C61.16567471 57.19763836 61.30741815 78.71191241 61.4429636 100.22623348 C61.50864557 110.63025316 61.57621855 121.03425422 61.64819336 131.43823242 C61.71089793 140.50288093 61.77010537 149.56754426 61.82505554 158.63224322 C61.85429375 163.4350412 61.88532229 168.237813 61.92053413 173.04057121 C61.95358164 177.55564293 61.98197406 182.07071935 62.00670624 186.58584404 C62.01664788 188.24798208 62.02832962 189.91011072 62.04183006 191.57222366 C62.05992741 193.83147044 62.07191624 196.0906669 62.08229065 198.34996033 C62.09058679 199.61742568 62.09888292 200.88489103 62.10743046 202.19076443 C62 205 62 205 61 206 C49.12 206 37.24 206 25 206 C25 149.24 25 92.48 25 34 C16.75 33.67 8.5 33.34 0 33 C0 22.11 0 11.22 0 0 Z " fill="#000000" transform="translate(491,81)"/>
<path d="M0 0 C2.57438134 3.861572 2.11188965 6.81600142 1.8125 11.25 C1.78091797 11.98863281 1.74933594 12.72726563 1.71679688 13.48828125 C1.36530264 19.26501267 0.38704966 24.68995195 -3.9375 28.875 C-8.60250032 31.41954563 -13.79751839 31.6503102 -19 31 C-23.380088 28.809956 -26.02824544 26.52343694 -28 22 C-27.505 20.515 -27.505 20.515 -27 19 C-26.67386719 19.56589844 -26.34773438 20.13179687 -26.01171875 20.71484375 C-25.57472656 21.44832031 -25.13773438 22.18179688 -24.6875 22.9375 C-24.25824219 23.66839844 -23.82898437 24.39929688 -23.38671875 25.15234375 C-22.04889746 27.29977412 -22.04889746 27.29977412 -19 28 C-13.95129371 28.47673542 -9.51619258 28.77356764 -4.9375 26.4375 C-0.80323675 21.2363301 -0.85054593 15.79119725 -0.99609375 9.4453125 C-1.00126978 6.20511533 -0.55442462 3.18794154 0 0 Z " fill="#0658A6" transform="translate(1217,231)"/>
<path d="M0 0 C3.84534619 1.81367802 7.20137355 4.14008594 10.68359375 6.5625 C15.24366667 9.39235976 19.51946625 10.38969432 24.8125 11.125 C26.55466797 11.37636719 26.55466797 11.37636719 28.33203125 11.6328125 C35.22519504 12.32286297 41.67190901 11.93570136 48.5 11 C49.22703125 10.90460938 49.9540625 10.80921875 50.703125 10.7109375 C52.46935867 10.47853833 54.23477406 10.23993362 56 10 C50.9173673 15.0826327 40.97791421 14.2750362 34.125 14.375 C21.72735999 14.33767709 10.71544764 10.9911411 1 3 C0.67 2.01 0.34 1.02 0 0 Z " fill="#0C579F" transform="translate(1167,277)"/>
<path d="M0 0 C0.33 0 0.66 0 1 0 C2.52494731 7.43411812 2.26612568 14.56151161 1 22 C0.67 22 0.34 22 0 22 C-2.58823529 5.17647059 -2.58823529 5.17647059 0 0 Z " fill="#014FB6" transform="translate(1217,152)"/>
<path d="M0 0 C2.08229108 3.12343663 2.23770457 3.53852922 1.9765625 7.01171875 C1.925 7.76904297 1.8734375 8.52636719 1.8203125 9.30664062 C1.75585938 10.09232422 1.69140625 10.87800781 1.625 11.6875 C1.56828125 12.48478516 1.5115625 13.28207031 1.453125 14.10351562 C1.31183972 16.06973581 1.15720094 18.03498824 1 20 C0.34 20 -0.32 20 -1 20 C-1.18451025 6.3667426 -1.18451025 6.3667426 0 0 Z " fill="#0251B3" transform="translate(1217,231)"/>
<path d="M0 0 C-1.46457397 3.86114956 -3.42164824 5.07990881 -7 7 C-7.99 7.66 -8.98 8.32 -10 9 C-8.5124715 4.98367305 -4.56813239 0 0 0 Z " fill="#07519B" transform="translate(1176,85)"/>
<path d="M0 0 C0.99 0 1.98 0 3 0 C3 2.64 3 5.28 3 8 C2.34 8 1.68 8 1 8 C0 1.125 0 1.125 0 0 Z " fill="#0153BC" transform="translate(1216,207)"/>
<path d="M0 0 C0.33 0 0.66 0 1 0 C1 4.62 1 9.24 1 14 C0.67 14 0.34 14 0 14 C0 9.38 0 4.76 0 0 Z " fill="#000000" transform="translate(346,183)"/>
<path d="M0 0 C0.33 0 0.66 0 1 0 C1 4.29 1 8.58 1 13 C0.67 13 0.34 13 0 13 C0 8.71 0 4.42 0 0 Z " fill="#000000" transform="translate(346,146)"/>
<path d="M0 0 C0.33 0 0.66 0 1 0 C1 3.63 1 7.26 1 11 C0.67 11 0.34 11 0 11 C0 7.37 0 3.74 0 0 Z " fill="#000000" transform="translate(346,167)"/>
<path d="M0 0 C0.33 0 0.66 0 1 0 C1 1.98 1 3.96 1 6 C0.67 6 0.34 6 0 6 C0 4.02 0 2.04 0 0 Z " fill="#000000" transform="translate(346,216)"/>
<path d="M0 0 C0.33 0 0.66 0 1 0 C1 1.98 1 3.96 1 6 C0.67 6 0.34 6 0 6 C0 4.02 0 2.04 0 0 Z " fill="#000000" transform="translate(346,199)"/>
<path d="M0 0 C0.33 0 0.66 0 1 0 C1 1.98 1 3.96 1 6 C0.67 6 0.34 6 0 6 C0 4.02 0 2.04 0 0 Z " fill="#000000" transform="translate(242,145)"/>
<path d="M0 0 C0.33 0 0.66 0 1 0 C1 1.65 1 3.3 1 5 C0.67 5 0.34 5 0 5 C0 3.35 0 1.7 0 0 Z " fill="#000000" transform="translate(931,242)"/>
<path d="M0 0 C1.65 0 3.3 0 5 0 C5 0.33 5 0.66 5 1 C3.35 1 1.7 1 0 1 C0 0.67 0 0.34 0 0 Z " fill="#000000" transform="translate(888,198)"/>
<path d="M0 0 C0.33 0 0.66 0 1 0 C1 1.65 1 3.3 1 5 C0.67 5 0.34 5 0 5 C0 3.35 0 1.7 0 0 Z " fill="#000000" transform="translate(393,146)"/>
<path d="M0 0 C0.33 0 0.66 0 1 0 C1 1.65 1 3.3 1 5 C0.67 5 0.34 5 0 5 C0 3.35 0 1.7 0 0 Z " fill="#000000" transform="translate(683,129)"/>
<path d="M0 0 C1 4 1 4 1 4 Z " fill="#000000" transform="translate(930,251)"/>
<path d="M0 0 C1 4 1 4 1 4 Z " fill="#000000" transform="translate(346,235)"/>
<path d="M0 0 C4 1 4 1 4 1 Z " fill="#000000" transform="translate(898,198)"/>
<path d="M0 0 C1 4 1 4 1 4 Z " fill="#000000" transform="translate(393,189)"/>
<path d="M0 0 C0.99 0.495 0.99 0.495 2 1 C1.34 1.66 0.68 2.32 0 3 C0 2.01 0 1.02 0 0 Z " fill="#000000" transform="translate(979,148)"/>
<path d="M0 0 C1 4 1 4 1 4 Z " fill="#000000" transform="translate(447,143)"/>
<path d="M0 0 C1 4 1 4 1 4 Z " fill="#000000" transform="translate(186,143)"/>
<path d="M0 0 C1 4 1 4 1 4 Z " fill="#000000" transform="translate(682,123)"/>
<path d="" fill="#000000" transform="translate(0,0)"/>
<path d="" fill="#000000" transform="translate(0,0)"/>
<path d="" fill="#000000" transform="translate(0,0)"/>
<path d="" fill="#000000" transform="translate(0,0)"/>
<path d="" fill="#000000" transform="translate(0,0)"/>
<path d="" fill="#000000" transform="translate(0,0)"/>
<path d="" fill="#000000" transform="translate(0,0)"/>
<path d="" fill="#000000" transform="translate(0,0)"/>
<path d="" fill="#000000" transform="translate(0,0)"/>
<path d="" fill="#000000" transform="translate(0,0)"/>
<path d="" fill="#000000" transform="translate(0,0)"/>
<path d="M0 0 C0.99 0.495 0.99 0.495 2 1 C1.01 1.495 1.01 1.495 0 2 C0 1.34 0 0.68 0 0 Z " fill="#000000" transform="translate(980,152)"/>
<path d="" fill="#000000" transform="translate(0,0)"/>
<path d="" fill="#000000" transform="translate(0,0)"/>
<path d="" fill="#000000" transform="translate(0,0)"/>
<path d="" fill="#000000" transform="translate(0,0)"/>
<path d="" fill="#000000" transform="translate(0,0)"/>
<path d="" fill="#000000" transform="translate(0,0)"/>
<path d="M0 0 C3 1 3 1 3 1 Z " fill="#000000" transform="translate(512,115)"/>
<path d="" fill="#000000" transform="translate(0,0)"/>
<path d="" fill="#000000" transform="translate(0,0)"/>
<path d="M0 0 C3 1 3 1 3 1 Z " fill="#000000" transform="translate(112,79)"/>
<path d="M0 0 C2 1 2 1 2 1 Z " fill="#000000" transform="translate(883,348)"/>
<path d="M0 0 C2 1 2 1 2 1 Z " fill="#000000" transform="translate(1025,346)"/>
<path d="" fill="#000000" transform="translate(0,0)"/>
<path d="" fill="#000000" transform="translate(0,0)"/>
<path d="" fill="#000000" transform="translate(0,0)"/>
<path d="" fill="#000000" transform="translate(0,0)"/>
<path d="" fill="#000000" transform="translate(0,0)"/>
<path d="" fill="#000000" transform="translate(0,0)"/>
<path d="" fill="#000000" transform="translate(0,0)"/>
<path d="" fill="#000000" transform="translate(0,0)"/>
<path d="" fill="#000000" transform="translate(0,0)"/>
<path d="" fill="#000000" transform="translate(0,0)"/>
<path d="" fill="#000000" transform="translate(0,0)"/>
<path d="" fill="#000000" transform="translate(0,0)"/>
<path d="" fill="#000000" transform="translate(0,0)"/>
<path d="" fill="#000000" transform="translate(0,0)"/>
<path d="" fill="#000000" transform="translate(0,0)"/>
<path d="" fill="#000000" transform="translate(0,0)"/>
<path d="M0 0 C2 1 2 1 2 1 Z " fill="#000000" transform="translate(92,219)"/>
<path d="M0 0 C2 1 2 1 2 1 Z " fill="#000000" transform="translate(107,218)"/>
<path d="M0 0 C2 1 2 1 2 1 Z " fill="#000000" transform="translate(104,218)"/>
<path d="" fill="#000000" transform="translate(0,0)"/>
<path d="" fill="#000000" transform="translate(0,0)"/>
<path d="M0 0 C2 1 2 1 2 1 Z " fill="#000000" transform="translate(432,206)"/>
<path d="M0 0 C2 1 2 1 2 1 Z " fill="#000000" transform="translate(907,198)"/>
<path d="M0 0 C2 1 2 1 2 1 Z " fill="#000000" transform="translate(895,198)"/>
<path d="" fill="#000000" transform="translate(0,0)"/>
<path d="" fill="#000000" transform="translate(0,0)"/>
<path d="" fill="#000000" transform="translate(0,0)"/>
<path d="" fill="#000000" transform="translate(0,0)"/>
<path d="" fill="#000000" transform="translate(0,0)"/>
<path d="" fill="#000000" transform="translate(0,0)"/>
<path d="" fill="#000000" transform="translate(0,0)"/>
<path d="" fill="#000000" transform="translate(0,0)"/>
<path d="" fill="#000000" transform="translate(0,0)"/>
<path d="" fill="#000000" transform="translate(0,0)"/>
<path d="" fill="#000000" transform="translate(0,0)"/>
<path d="" fill="#000000" transform="translate(0,0)"/>
<path d="" fill="#000000" transform="translate(0,0)"/>
<path d="" fill="#000000" transform="translate(0,0)"/>
<path d="" fill="#000000" transform="translate(0,0)"/>
<path d="" fill="#000000" transform="translate(0,0)"/>
<path d="" fill="#000000" transform="translate(0,0)"/>
<path d="" fill="#000000" transform="translate(0,0)"/>
<path d="" fill="#000000" transform="translate(0,0)"/>
<path d="" fill="#000000" transform="translate(0,0)"/>
<path d="M0 0 C2 1 2 1 2 1 Z " fill="#000000" transform="translate(185,151)"/>
<path d="" fill="#000000" transform="translate(0,0)"/>
<path d="" fill="#000000" transform="translate(0,0)"/>
<path d="" fill="#000000" transform="translate(0,0)"/>
<path d="" fill="#000000" transform="translate(0,0)"/>
<path d="" fill="#000000" transform="translate(0,0)"/>
<path d="" fill="#000000" transform="translate(0,0)"/>
<path d="" fill="#000000" transform="translate(0,0)"/>
<path d="" fill="#000000" transform="translate(0,0)"/>
<path d="" fill="#000000" transform="translate(0,0)"/>
<path d="" fill="#000000" transform="translate(0,0)"/>
<path d="" fill="#000000" transform="translate(0,0)"/>
<path d="" fill="#000000" transform="translate(0,0)"/>
<path d="" fill="#000000" transform="translate(0,0)"/>
<path d="" fill="#000000" transform="translate(0,0)"/>
<path d="" fill="#000000" transform="translate(0,0)"/>
<path d="" fill="#000000" transform="translate(0,0)"/>
<path d="" fill="#000000" transform="translate(0,0)"/>
<path d="" fill="#000000" transform="translate(0,0)"/>
<path d="M0 0 C2 1 2 1 2 1 Z " fill="#000000" transform="translate(492,115)"/>
<path d="M0 0 C2 1 2 1 2 1 Z " fill="#000000" transform="translate(440,115)"/>
<path d="" fill="#000000" transform="translate(0,0)"/>
<path d="" fill="#000000" transform="translate(0,0)"/>
<path d="M0 0 C2 1 2 1 2 1 Z " fill="#006A94" transform="translate(1221,79)"/>
<path d="" fill="#000000" transform="translate(0,0)"/>
<path d="" fill="#000000" transform="translate(0,0)"/>
<path d="" fill="#000000" transform="translate(0,0)"/>
<path d="" fill="#000000" transform="translate(0,0)"/>
<path d="" fill="#000000" transform="translate(0,0)"/>
<path d="" fill="#000000" transform="translate(0,0)"/>
<path d="" fill="#000000" transform="translate(0,0)"/>
<path d="" fill="#000000" transform="translate(0,0)"/>
<path d="" fill="#000000" transform="translate(0,0)"/>
<path d="" fill="#000000" transform="translate(0,0)"/>
<path d="" fill="#000000" transform="translate(0,0)"/>
<path d="" fill="#000000" transform="translate(0,0)"/>
<path d="" fill="#000000" transform="translate(0,0)"/>
<path d="" fill="#000000" transform="translate(0,0)"/>
<path d="" fill="#000000" transform="translate(0,0)"/>
<path d="" fill="#000000" transform="translate(0,0)"/>
<path d="" fill="#000000" transform="translate(0,0)"/>
<path d="" fill="#000000" transform="translate(0,0)"/>
<path d="" fill="#000000" transform="translate(0,0)"/>
<path d="" fill="#000000" transform="translate(0,0)"/>
<path d="" fill="#000000" transform="translate(0,0)"/>
<path d="" fill="#000000" transform="translate(0,0)"/>
<path d="" fill="#000000" transform="translate(0,0)"/>
<path d="" fill="#000000" transform="translate(0,0)"/>
<path d="" fill="#000000" transform="translate(0,0)"/>
<path d="" fill="#000000" transform="translate(0,0)"/>
<path d="" fill="#000000" transform="translate(0,0)"/>
<path d="" fill="#000000" transform="translate(0,0)"/>
<path d="" fill="#000000" transform="translate(0,0)"/>
<path d="" fill="#000000" transform="translate(0,0)"/>
<path d="" fill="#000000" transform="translate(0,0)"/>
<path d="" fill="#000000" transform="translate(0,0)"/>
<path d="" fill="#000000" transform="translate(0,0)"/>
<path d="" fill="#0000FF" transform="translate(0,0)"/>
<path d="" fill="#000000" transform="translate(0,0)"/>
<path d="" fill="#000000" transform="translate(0,0)"/>
<path d="" fill="#000000" transform="translate(0,0)"/>
<path d="" fill="#000000" transform="translate(0,0)"/>
<path d="" fill="#000000" transform="translate(0,0)"/>
<path d="" fill="#000000" transform="translate(0,0)"/>
<path d="" fill="#000000" transform="translate(0,0)"/>
<path d="" fill="#000000" transform="translate(0,0)"/>
<path d="" fill="#000000" transform="translate(0,0)"/>
<path d="" fill="#000000" transform="translate(0,0)"/>
<path d="" fill="#000000" transform="translate(0,0)"/>
<path d="" fill="#0000FF" transform="translate(0,0)"/>
<path d="" fill="#0000FF" transform="translate(0,0)"/>
<path d="" fill="#0055AA" transform="translate(0,0)"/>
<path d="" fill="#000000" transform="translate(0,0)"/>
<path d="" fill="#000000" transform="translate(0,0)"/>
<path d="" fill="#000000" transform="translate(0,0)"/>
<path d="" fill="#000000" transform="translate(0,0)"/>
<path d="" fill="#000000" transform="translate(0,0)"/>
<path d="" fill="#000000" transform="translate(0,0)"/>
<path d="" fill="#000000" transform="translate(0,0)"/>
<path d="" fill="#0000FF" transform="translate(0,0)"/>
<path d="" fill="#000000" transform="translate(0,0)"/>
<path d="" fill="#000000" transform="translate(0,0)"/>
<path d="" fill="#000000" transform="translate(0,0)"/>
<path d="" fill="#000000" transform="translate(0,0)"/>
<path d="" fill="#000000" transform="translate(0,0)"/>
<path d="" fill="#000000" transform="translate(0,0)"/>
<path d="" fill="#000000" transform="translate(0,0)"/>
<path d="" fill="#000000" transform="translate(0,0)"/>
<path d="" fill="#000000" transform="translate(0,0)"/>
<path d="" fill="#000000" transform="translate(0,0)"/>
<path d="" fill="#0000FF" transform="translate(0,0)"/>
<path d="" fill="#000000" transform="translate(0,0)"/>
<path d="" fill="#000000" transform="translate(0,0)"/>
<path d="" fill="#000000" transform="translate(0,0)"/>
<path d="" fill="#000000" transform="translate(0,0)"/>
<path d="" fill="#000000" transform="translate(0,0)"/>
<path d="" fill="#000000" transform="translate(0,0)"/>
<path d="" fill="#000000" transform="translate(0,0)"/>
<path d="" fill="#000000" transform="translate(0,0)"/>
<path d="" fill="#000000" transform="translate(0,0)"/>
<path d="" fill="#000000" transform="translate(0,0)"/>
<path d="" fill="#000000" transform="translate(0,0)"/>
<path d="" fill="#000000" transform="translate(0,0)"/>
<path d="" fill="#000000" transform="translate(0,0)"/>
<path d="" fill="#007F7F" transform="translate(0,0)"/>
<path d="" fill="#000000" transform="translate(0,0)"/>
<path d="" fill="#000000" transform="translate(0,0)"/>
<path d="" fill="#000000" transform="translate(0,0)"/>
<path d="" fill="#000000" transform="translate(0,0)"/>
<path d="" fill="#000000" transform="translate(0,0)"/>
<path d="" fill="#000000" transform="translate(0,0)"/>
<path d="" fill="#000000" transform="translate(0,0)"/>
<path d="" fill="#000000" transform="translate(0,0)"/>
<path d="" fill="#000000" transform="translate(0,0)"/>
<path d="" fill="#000000" transform="translate(0,0)"/>
<path d="" fill="#000000" transform="translate(0,0)"/>
<path d="" fill="#000000" transform="translate(0,0)"/>
<path d="" fill="#000000" transform="translate(0,0)"/>
<path d="" fill="#000000" transform="translate(0,0)"/>
<path d="" fill="#000000" transform="translate(0,0)"/>
<path d="" fill="#000000" transform="translate(0,0)"/>
<path d="" fill="#000000" transform="translate(0,0)"/>
<path d="" fill="#000000" transform="translate(0,0)"/>
<path d="" fill="#000000" transform="translate(0,0)"/>
<path d="" fill="#000000" transform="translate(0,0)"/>
<path d="" fill="#000000" transform="translate(0,0)"/>
<path d="" fill="#000000" transform="translate(0,0)"/>
<path d="" fill="#000000" transform="translate(0,0)"/>
<path d="" fill="#000000" transform="translate(0,0)"/>
<path d="" fill="#000000" transform="translate(0,0)"/>
<path d="" fill="#000000" transform="translate(0,0)"/>
<path d="" fill="#000000" transform="translate(0,0)"/>
<path d="" fill="#000000" transform="translate(0,0)"/>
<path d="" fill="#000000" transform="translate(0,0)"/>
<path d="" fill="#000000" transform="translate(0,0)"/>
<path d="" fill="#000000" transform="translate(0,0)"/>
<path d="" fill="#000000" transform="translate(0,0)"/>
<path d="" fill="#000000" transform="translate(0,0)"/>
<path d="" fill="#000000" transform="translate(0,0)"/>
<path d="" fill="#000000" transform="translate(0,0)"/>
<path d="" fill="#000000" transform="translate(0,0)"/>
<path d="" fill="#000000" transform="translate(0,0)"/>
<path d="" fill="#000000" transform="translate(0,0)"/>
<path d="" fill="#000000" transform="translate(0,0)"/>
<path d="" fill="#000000" transform="translate(0,0)"/>
<path d="" fill="#000000" transform="translate(0,0)"/>
<path d="" fill="#000000" transform="translate(0,0)"/>
<path d="" fill="#000000" transform="translate(0,0)"/>
<path d="" fill="#000000" transform="translate(0,0)"/>
<path d="" fill="#000000" transform="translate(0,0)"/>
<path d="" fill="#000000" transform="translate(0,0)"/>
<path d="" fill="#000000" transform="translate(0,0)"/>
<path d="" fill="#000000" transform="translate(0,0)"/>
<path d="" fill="#000000" transform="translate(0,0)"/>
<path d="" fill="#000000" transform="translate(0,0)"/>
<path d="" fill="#000000" transform="translate(0,0)"/>
<path d="" fill="#000000" transform="translate(0,0)"/>
<path d="" fill="#000000" transform="translate(0,0)"/>
<path d="" fill="#000000" transform="translate(0,0)"/>
<path d="" fill="#000000" transform="translate(0,0)"/>
<path d="" fill="#000000" transform="translate(0,0)"/>
<path d="" fill="#000000" transform="translate(0,0)"/>
<path d="" fill="#000000" transform="translate(0,0)"/>
<path d="" fill="#000000" transform="translate(0,0)"/>
<path d="" fill="#000000" transform="translate(0,0)"/>
<path d="" fill="#000055" transform="translate(0,0)"/>
<path d="" fill="#000000" transform="translate(0,0)"/>
<path d="" fill="#000000" transform="translate(0,0)"/>
<path d="" fill="#000000" transform="translate(0,0)"/>
<path d="" fill="#000000" transform="translate(0,0)"/>
<path d="" fill="#000000" transform="translate(0,0)"/>
<path d="" fill="#000000" transform="translate(0,0)"/>
<path d="" fill="#000000" transform="translate(0,0)"/>
<path d="" fill="#000000" transform="translate(0,0)"/>
<path d="" fill="#000000" transform="translate(0,0)"/>
<path d="" fill="#000000" transform="translate(0,0)"/>
<path d="" fill="#000000" transform="translate(0,0)"/>
<path d="" fill="#000000" transform="translate(0,0)"/>
<path d="" fill="#000000" transform="translate(0,0)"/>
<path d="" fill="#000000" transform="translate(0,0)"/>
<path d="" fill="#000000" transform="translate(0,0)"/>
<path d="" fill="#000000" transform="translate(0,0)"/>
<path d="" fill="#000000" transform="translate(0,0)"/>
<path d="" fill="#000000" transform="translate(0,0)"/>
<path d="" fill="#000000" transform="translate(0,0)"/>
<path d="" fill="#000000" transform="translate(0,0)"/>
<path d="" fill="#000000" transform="translate(0,0)"/>
<path d="" fill="#000000" transform="translate(0,0)"/>
<path d="" fill="#000000" transform="translate(0,0)"/>
<path d="" fill="#000000" transform="translate(0,0)"/>
<path d="" fill="#000000" transform="translate(0,0)"/>
<path d="" fill="#007F7F" transform="translate(0,0)"/>
<path d="" fill="#000000" transform="translate(0,0)"/>
<path d="" fill="#000000" transform="translate(0,0)"/>
<path d="" fill="#000000" transform="translate(0,0)"/>
<path d="" fill="#000000" transform="translate(0,0)"/>
<path d="" fill="#000000" transform="translate(0,0)"/>
<path d="" fill="#000000" transform="translate(0,0)"/>
<path d="" fill="#000000" transform="translate(0,0)"/>
<path d="" fill="#000000" transform="translate(0,0)"/>
<path d="" fill="#000000" transform="translate(0,0)"/>
<path d="" fill="#000000" transform="translate(0,0)"/>
<path d="" fill="#000000" transform="translate(0,0)"/>
<path d="" fill="#000000" transform="translate(0,0)"/>
<path d="" fill="#000000" transform="translate(0,0)"/>
<path d="" fill="#000000" transform="translate(0,0)"/>
<path d="" fill="#0000FF" transform="translate(0,0)"/>
<path d="" fill="#000000" transform="translate(0,0)"/>
<path d="" fill="#000000" transform="translate(0,0)"/>
<path d="" fill="#000000" transform="translate(0,0)"/>
<path d="" fill="#000000" transform="translate(0,0)"/>
<path d="" fill="#000000" transform="translate(0,0)"/>
<path d="" fill="#000000" transform="translate(0,0)"/>
<path d="" fill="#000000" transform="translate(0,0)"/>
<path d="" fill="#000000" transform="translate(0,0)"/>
<path d="" fill="#000000" transform="translate(0,0)"/>
<path d="" fill="#000000" transform="translate(0,0)"/>
<path d="" fill="#000000" transform="translate(0,0)"/>
<path d="" fill="#000000" transform="translate(0,0)"/>
<path d="" fill="#000000" transform="translate(0,0)"/>
<path d="" fill="#000000" transform="translate(0,0)"/>
<path d="" fill="#000000" transform="translate(0,0)"/>
<path d="" fill="#000000" transform="translate(0,0)"/>
<path d="" fill="#000000" transform="translate(0,0)"/>
<path d="" fill="#000000" transform="translate(0,0)"/>
<path d="" fill="#000000" transform="translate(0,0)"/>
<path d="" fill="#000000" transform="translate(0,0)"/>
<path d="" fill="#000000" transform="translate(0,0)"/>
<path d="" fill="#000000" transform="translate(0,0)"/>
<path d="" fill="#000000" transform="translate(0,0)"/>
<path d="" fill="#000000" transform="translate(0,0)"/>
<path d="" fill="#000000" transform="translate(0,0)"/>
<path d="" fill="#000000" transform="translate(0,0)"/>
<path d="" fill="#000000" transform="translate(0,0)"/>
<path d="" fill="#000000" transform="translate(0,0)"/>
<path d="" fill="#0000FF" transform="translate(0,0)"/>
<path d="" fill="#000000" transform="translate(0,0)"/>
<path d="" fill="#000000" transform="translate(0,0)"/>
<path d="" fill="#000000" transform="translate(0,0)"/>
<path d="" fill="#000000" transform="translate(0,0)"/>
<path d="" fill="#000000" transform="translate(0,0)"/>
<path d="" fill="#000000" transform="translate(0,0)"/>
<path d="" fill="#000000" transform="translate(0,0)"/>
<path d="" fill="#000000" transform="translate(0,0)"/>
<path d="" fill="#000000" transform="translate(0,0)"/>
<path d="" fill="#000000" transform="translate(0,0)"/>
<path d="" fill="#000000" transform="translate(0,0)"/>
<path d="" fill="#000000" transform="translate(0,0)"/>
<path d="" fill="#000000" transform="translate(0,0)"/>
<path d="" fill="#000000" transform="translate(0,0)"/>
<path d="" fill="#000000" transform="translate(0,0)"/>
<path d="" fill="#000000" transform="translate(0,0)"/>
<path d="" fill="#000000" transform="translate(0,0)"/>
<path d="" fill="#000000" transform="translate(0,0)"/>
<path d="" fill="#000000" transform="translate(0,0)"/>
<path d="" fill="#000000" transform="translate(0,0)"/>
<path d="" fill="#000000" transform="translate(0,0)"/>
<path d="" fill="#000000" transform="translate(0,0)"/>
<path d="" fill="#000000" transform="translate(0,0)"/>
<path d="" fill="#000000" transform="translate(0,0)"/>
<path d="" fill="#000000" transform="translate(0,0)"/>
<path d="" fill="#000000" transform="translate(0,0)"/>
<path d="" fill="#000000" transform="translate(0,0)"/>
<path d="" fill="#000000" transform="translate(0,0)"/>
<path d="" fill="#000000" transform="translate(0,0)"/>
<path d="" fill="#000000" transform="translate(0,0)"/>
<path d="" fill="#000000" transform="translate(0,0)"/>
<path d="" fill="#000000" transform="translate(0,0)"/>
<path d="" fill="#000000" transform="translate(0,0)"/>
<path d="" fill="#000000" transform="translate(0,0)"/>
<path d="" fill="#000000" transform="translate(0,0)"/>
<path d="" fill="#000000" transform="translate(0,0)"/>
<path d="" fill="#000000" transform="translate(0,0)"/>
<path d="" fill="#000000" transform="translate(0,0)"/>
<path d="" fill="#000000" transform="translate(0,0)"/>
<path d="" fill="#000000" transform="translate(0,0)"/>
<path d="" fill="#000000" transform="translate(0,0)"/>
<path d="" fill="#000000" transform="translate(0,0)"/>
<path d="" fill="#000000" transform="translate(0,0)"/>
<path d="" fill="#000000" transform="translate(0,0)"/>
<path d="" fill="#000000" transform="translate(0,0)"/>
<path d="" fill="#000000" transform="translate(0,0)"/>
<path d="" fill="#000000" transform="translate(0,0)"/>
<path d="" fill="#000000" transform="translate(0,0)"/>
<path d="" fill="#000000" transform="translate(0,0)"/>
<path d="" fill="#0000FF" transform="translate(0,0)"/>
<path d="" fill="#000000" transform="translate(0,0)"/>
<path d="" fill="#000000" transform="translate(0,0)"/>
<path d="" fill="#000000" transform="translate(0,0)"/>
<path d="" fill="#007F7F" transform="translate(0,0)"/>
<path d="" fill="#000000" transform="translate(0,0)"/>
<path d="" fill="#000000" transform="translate(0,0)"/>
<path d="" fill="#000000" transform="translate(0,0)"/>
<path d="" fill="#000000" transform="translate(0,0)"/>
<path d="" fill="#000000" transform="translate(0,0)"/>
<path d="" fill="#000000" transform="translate(0,0)"/>
<path d="" fill="#000000" transform="translate(0,0)"/>
<path d="" fill="#000000" transform="translate(0,0)"/>
<path d="" fill="#000000" transform="translate(0,0)"/>
<path d="" fill="#000000" transform="translate(0,0)"/>
<path d="" fill="#000000" transform="translate(0,0)"/>
<path d="" fill="#000000" transform="translate(0,0)"/>
<path d="" fill="#000000" transform="translate(0,0)"/>
<path d="" fill="#000000" transform="translate(0,0)"/>
<path d="" fill="#000000" transform="translate(0,0)"/>
<path d="" fill="#000000" transform="translate(0,0)"/>
<path d="" fill="#000000" transform="translate(0,0)"/>
<path d="" fill="#000000" transform="translate(0,0)"/>
<path d="" fill="#000000" transform="translate(0,0)"/>
<path d="" fill="#000000" transform="translate(0,0)"/>
<path d="" fill="#000000" transform="translate(0,0)"/>
<path d="" fill="#000000" transform="translate(0,0)"/>
<path d="" fill="#000000" transform="translate(0,0)"/>
<path d="" fill="#000000" transform="translate(0,0)"/>
<path d="" fill="#000000" transform="translate(0,0)"/>
<path d="" fill="#000000" transform="translate(0,0)"/>
<path d="" fill="#000000" transform="translate(0,0)"/>
<path d="" fill="#000000" transform="translate(0,0)"/>
<path d="" fill="#000000" transform="translate(0,0)"/>
<path d="" fill="#000000" transform="translate(0,0)"/>
<path d="" fill="#000000" transform="translate(0,0)"/>
<path d="" fill="#000000" transform="translate(0,0)"/>
<path d="" fill="#000000" transform="translate(0,0)"/>
<path d="" fill="#000000" transform="translate(0,0)"/>
<path d="" fill="#000000" transform="translate(0,0)"/>
<path d="" fill="#000000" transform="translate(0,0)"/>
<path d="" fill="#000000" transform="translate(0,0)"/>
<path d="" fill="#000000" transform="translate(0,0)"/>
<path d="" fill="#000000" transform="translate(0,0)"/>
<path d="" fill="#000000" transform="translate(0,0)"/>
<path d="" fill="#000000" transform="translate(0,0)"/>
<path d="" fill="#000000" transform="translate(0,0)"/>
<path d="" fill="#000000" transform="translate(0,0)"/>
<path d="" fill="#000000" transform="translate(0,0)"/>
<path d="" fill="#000000" transform="translate(0,0)"/>
<path d="" fill="#000000" transform="translate(0,0)"/>
<path d="" fill="#000000" transform="translate(0,0)"/>
<path d="" fill="#000000" transform="translate(0,0)"/>
<path d="" fill="#000000" transform="translate(0,0)"/>
<path d="" fill="#000000" transform="translate(0,0)"/>
<path d="" fill="#000000" transform="translate(0,0)"/>
<path d="" fill="#000000" transform="translate(0,0)"/>
<path d="" fill="#000000" transform="translate(0,0)"/>
<path d="" fill="#000000" transform="translate(0,0)"/>
<path d="" fill="#000000" transform="translate(0,0)"/>
<path d="" fill="#000000" transform="translate(0,0)"/>
<path d="" fill="#000000" transform="translate(0,0)"/>
<path d="" fill="#000000" transform="translate(0,0)"/>
<path d="" fill="#000000" transform="translate(0,0)"/>
<path d="" fill="#000000" transform="translate(0,0)"/>
<path d="" fill="#000000" transform="translate(0,0)"/>
<path d="" fill="#000000" transform="translate(0,0)"/>
<path d="" fill="#000000" transform="translate(0,0)"/>
<path d="" fill="#000000" transform="translate(0,0)"/>
<path d="" fill="#000000" transform="translate(0,0)"/>
<path d="" fill="#000000" transform="translate(0,0)"/>
<path d="" fill="#000000" transform="translate(0,0)"/>
<path d="" fill="#000000" transform="translate(0,0)"/>
<path d="" fill="#000000" transform="translate(0,0)"/>
<path d="" fill="#000000" transform="translate(0,0)"/>
<path d="" fill="#000000" transform="translate(0,0)"/>
<path d="" fill="#000000" transform="translate(0,0)"/>
<path d="" fill="#000000" transform="translate(0,0)"/>
<path d="" fill="#000000" transform="translate(0,0)"/>
<path d="" fill="#000000" transform="translate(0,0)"/>
<path d="" fill="#000000" transform="translate(0,0)"/>
<path d="" fill="#000000" transform="translate(0,0)"/>
<path d="" fill="#000000" transform="translate(0,0)"/>
<path d="" fill="#000000" transform="translate(0,0)"/>
<path d="" fill="#000000" transform="translate(0,0)"/>
<path d="" fill="#000000" transform="translate(0,0)"/>
<path d="" fill="#000000" transform="translate(0,0)"/>
<path d="" fill="#000000" transform="translate(0,0)"/>
<path d="" fill="#000000" transform="translate(0,0)"/>
<path d="" fill="#000000" transform="translate(0,0)"/>
<path d="" fill="#000000" transform="translate(0,0)"/>
<path d="" fill="#000000" transform="translate(0,0)"/>
<path d="" fill="#000000" transform="translate(0,0)"/>
<path d="" fill="#000000" transform="translate(0,0)"/>
<path d="" fill="#000000" transform="translate(0,0)"/>
<path d="" fill="#000000" transform="translate(0,0)"/>
<path d="" fill="#000000" transform="translate(0,0)"/>
<path d="" fill="#000000" transform="translate(0,0)"/>
<path d="" fill="#000000" transform="translate(0,0)"/>
<path d="" fill="#000000" transform="translate(0,0)"/>
<path d="" fill="#000000" transform="translate(0,0)"/>
<path d="" fill="#000000" transform="translate(0,0)"/>
<path d="" fill="#000000" transform="translate(0,0)"/>
<path d="" fill="#000000" transform="translate(0,0)"/>
<path d="" fill="#000000" transform="translate(0,0)"/>
<path d="" fill="#000000" transform="translate(0,0)"/>
<path d="" fill="#000000" transform="translate(0,0)"/>
<path d="" fill="#000000" transform="translate(0,0)"/>
<path d="" fill="#000000" transform="translate(0,0)"/>
<path d="" fill="#000000" transform="translate(0,0)"/>
<path d="" fill="#000000" transform="translate(0,0)"/>
<path d="" fill="#000000" transform="translate(0,0)"/>
<path d="" fill="#000000" transform="translate(0,0)"/>
<path d="" fill="#000000" transform="translate(0,0)"/>
<path d="" fill="#000000" transform="translate(0,0)"/>
<path d="" fill="#000000" transform="translate(0,0)"/>
<path d="" fill="#000000" transform="translate(0,0)"/>
<path d="" fill="#000000" transform="translate(0,0)"/>
<path d="" fill="#000000" transform="translate(0,0)"/>
<path d="" fill="#0000FF" transform="translate(0,0)"/>
<path d="" fill="#000000" transform="translate(0,0)"/>
<path d="" fill="#000000" transform="translate(0,0)"/>
<path d="" fill="#000000" transform="translate(0,0)"/>
<path d="" fill="#000000" transform="translate(0,0)"/>
<path d="" fill="#000000" transform="translate(0,0)"/>
<path d="" fill="#000000" transform="translate(0,0)"/>
<path d="" fill="#000000" transform="translate(0,0)"/>
<path d="" fill="#000000" transform="translate(0,0)"/>
<path d="" fill="#000000" transform="translate(0,0)"/>
<path d="" fill="#0000FF" transform="translate(0,0)"/>
<path d="" fill="#000000" transform="translate(0,0)"/>
<path d="" fill="#000000" transform="translate(0,0)"/>
<path d="" fill="#000000" transform="translate(0,0)"/>
<path d="" fill="#000000" transform="translate(0,0)"/>
<path d="" fill="#000000" transform="translate(0,0)"/>
<path d="" fill="#000000" transform="translate(0,0)"/>
<path d="" fill="#000000" transform="translate(0,0)"/>
<path d="" fill="#000000" transform="translate(0,0)"/>
<path d="" fill="#000000" transform="translate(0,0)"/>
<path d="" fill="#000000" transform="translate(0,0)"/>
<path d="" fill="#000000" transform="translate(0,0)"/>
<path d="" fill="#000000" transform="translate(0,0)"/>
<path d="" fill="#000000" transform="translate(0,0)"/>
<path d="" fill="#000000" transform="translate(0,0)"/>
<path d="" fill="#000000" transform="translate(0,0)"/>
<path d="" fill="#000000" transform="translate(0,0)"/>
<path d="" fill="#000000" transform="translate(0,0)"/>
<path d="" fill="#000000" transform="translate(0,0)"/>
<path d="" fill="#000000" transform="translate(0,0)"/>
<path d="" fill="#000000" transform="translate(0,0)"/>
<path d="" fill="#000000" transform="translate(0,0)"/>
<path d="" fill="#000000" transform="translate(0,0)"/>
<path d="" fill="#000000" transform="translate(0,0)"/>
<path d="" fill="#000000" transform="translate(0,0)"/>
<path d="" fill="#000000" transform="translate(0,0)"/>
<path d="" fill="#000000" transform="translate(0,0)"/>
<path d="" fill="#000000" transform="translate(0,0)"/>
<path d="" fill="#000000" transform="translate(0,0)"/>
<path d="" fill="#000000" transform="translate(0,0)"/>
<path d="" fill="#000000" transform="translate(0,0)"/>
<path d="" fill="#0000FF" transform="translate(0,0)"/>
<path d="" fill="#000000" transform="translate(0,0)"/>
<path d="" fill="#000000" transform="translate(0,0)"/>
<path d="" fill="#000000" transform="translate(0,0)"/>
<path d="" fill="#000000" transform="translate(0,0)"/>
<path d="" fill="#000000" transform="translate(0,0)"/>
<path d="" fill="#000000" transform="translate(0,0)"/>
<path d="" fill="#000000" transform="translate(0,0)"/>
<path d="" fill="#000000" transform="translate(0,0)"/>
<path d="" fill="#000000" transform="translate(0,0)"/>
<path d="" fill="#000000" transform="translate(0,0)"/>
<path d="" fill="#000000" transform="translate(0,0)"/>
<path d="" fill="#000000" transform="translate(0,0)"/>
<path d="" fill="#000000" transform="translate(0,0)"/>
<path d="" fill="#000000" transform="translate(0,0)"/>
<path d="" fill="#000000" transform="translate(0,0)"/>
<path d="" fill="#000000" transform="translate(0,0)"/>
<path d="" fill="#000000" transform="translate(0,0)"/>
<path d="" fill="#000000" transform="translate(0,0)"/>
<path d="" fill="#000000" transform="translate(0,0)"/>
<path d="" fill="#000000" transform="translate(0,0)"/>
<path d="" fill="#000000" transform="translate(0,0)"/>
<path d="" fill="#000000" transform="translate(0,0)"/>
<path d="" fill="#000000" transform="translate(0,0)"/>
<path d="" fill="#000000" transform="translate(0,0)"/>
<path d="" fill="#007F7F" transform="translate(0,0)"/>
<path d="" fill="#0000FF" transform="translate(0,0)"/>
<path d="" fill="#0000FF" transform="translate(0,0)"/>
<path d="" fill="#000000" transform="translate(0,0)"/>
<path d="" fill="#000000" transform="translate(0,0)"/>
<path d="" fill="#000000" transform="translate(0,0)"/>
<path d="" fill="#000000" transform="translate(0,0)"/>
<path d="" fill="#000000" transform="translate(0,0)"/>
<path d="" fill="#000000" transform="translate(0,0)"/>
<path d="" fill="#000000" transform="translate(0,0)"/>
<path d="" fill="#000000" transform="translate(0,0)"/>
<path d="" fill="#000000" transform="translate(0,0)"/>
<path d="" fill="#000000" transform="translate(0,0)"/>
<path d="" fill="#000000" transform="translate(0,0)"/>
<path d="" fill="#000000" transform="translate(0,0)"/>
<path d="" fill="#000000" transform="translate(0,0)"/>
<path d="" fill="#000000" transform="translate(0,0)"/>
<path d="" fill="#000000" transform="translate(0,0)"/>
<path d="" fill="#000000" transform="translate(0,0)"/>
<path d="" fill="#000000" transform="translate(0,0)"/>
<path d="" fill="#000000" transform="translate(0,0)"/>
<path d="" fill="#000000" transform="translate(0,0)"/>
<path d="" fill="#000000" transform="translate(0,0)"/>
<path d="" fill="#000000" transform="translate(0,0)"/>
<path d="" fill="#000000" transform="translate(0,0)"/>
<path d="" fill="#000000" transform="translate(0,0)"/>
<path d="" fill="#000000" transform="translate(0,0)"/>
<path d="" fill="#000000" transform="translate(0,0)"/>
<path d="" fill="#000000" transform="translate(0,0)"/>
<path d="" fill="#000000" transform="translate(0,0)"/>
<path d="" fill="#000000" transform="translate(0,0)"/>
<path d="" fill="#000000" transform="translate(0,0)"/>
<path d="" fill="#000000" transform="translate(0,0)"/>
<path d="" fill="#000000" transform="translate(0,0)"/>
<path d="" fill="#000000" transform="translate(0,0)"/>
<path d="" fill="#000000" transform="translate(0,0)"/>
<path d="" fill="#000000" transform="translate(0,0)"/>
<path d="" fill="#000000" transform="translate(0,0)"/>
<path d="" fill="#000000" transform="translate(0,0)"/>
<path d="" fill="#000000" transform="translate(0,0)"/>
<path d="" fill="#000000" transform="translate(0,0)"/>
<path d="" fill="#000000" transform="translate(0,0)"/>
</svg>
